<svg t="1761987648852" class="icon" viewBox="0 0 1024 1024" version="1.1" xmlns="http://www.w3.org/2000/svg" p-id="6485" width="200" height="200"><path d="M512.64 128c-39.04 0-75.2 17.152-102.336 48.96-11.648 14.336-20.032 29.568-27.36 42.912l-1.44 2.88c-5.216 10.464-10.72 21.344-16.992 33.312l-1.376 3.072a8606.976 8606.976 0 0 0-163.84 341.184l-3.04 6.624c-2.08 4.48-4.16 9.152-5.952 13.312l-2.624 5.696c-1.92 4.224-3.84 8.48-5.44 12.288-3.744 8.512-7.52 17.376-11.616 28.256-10.016 29.664-12.864 56.576-8.992 85.056 8.64 58.784 47.616 109.28 101.76 131.84a164.096 164.096 0 0 0 63.68 12.608c4.896 0 12.192-0.384 20.352-1.504a204.224 204.224 0 0 0 76.96-26.624c28.16-15.872 55.808-38.72 86.56-71.552l1.248 1.664 0.48-0.672c28.8 30.784 56.64 53.92 84.96 70.304 24.576 14.4 50.592 23.392 76.8 26.752a155.136 155.136 0 0 0 84.384-11.296v0.064c53.568-21.504 92.384-70.976 101.696-129.504l0.928-5.248c5.056-24.96 2.56-51.52-7.456-80.96a90.24 90.24 0 0 0-3.808-9.408 312.128 312.128 0 0 0-7.296-17.76c-1.92-4.736-4-9.184-6.016-13.504l-5.056-11.424c-1.696-3.84-3.264-7.648-5.056-11.392l-2.08-4a8402.368 8402.368 0 0 0-162.784-339.072l-2.688-5.376c-5.888-10.88-11.84-22.72-18.08-35.488l-1.792-3.52c-6.56-11.84-13.312-24.032-23.456-36.16l-1.504-1.92C589.024 145.824 552.896 128 512.64 128z m-0.896 64.672a63.872 63.872 0 0 1 50.624 23.264l3.392 4.256c6.72 7.68 11.456 16.32 16.8 25.792l1.92 4.192c5.952 11.84 12.16 24.32 17.952 34.944l2.304 4.704c55.072 108.224 109.44 221.44 161.28 335.68l4.544 10.112 0.384 0.384 2.112 4.8 5.76 12.896c1.536 3.36 3.104 6.752 5.12 11.616 1.984 4.512 4.224 9.536 7.008 16.864 0.832 1.92 1.76 3.872 2.432 5.824l0.064 0.192c6.688 19.52 8.128 35.296 4.8 49.504l-0.8 4.736a104.608 104.608 0 0 1-64.512 82.24 92.288 92.288 0 0 1-49.856 6.272 140.576 140.576 0 0 1-53.312-18.624c-25.184-14.592-50.656-36.48-77.824-66.752l2.048-2.688c43.776-57.152 71.168-109.408 81.376-155.264l0.064-0.256c4.928-22.72 5.888-44.096 2.944-63.04a126.048 126.048 0 0 0-19.36-52C596.768 437.056 556.8 416 512 416c-42.944 0-82.56 20.416-106.016 54.624l-1.728 2.944a125.44 125.44 0 0 0-18.496 49.984 167.52 167.52 0 0 0 2.752 63.36c9.824 46.272 38.08 100.32 81.536 156.288l1.312 1.664-0.032 0.064c-29.12 32.128-53.984 53.44-78.816 67.456a141.792 141.792 0 0 1-53.632 18.688c-4.864 0.704-9.024 0.928-11.84 0.928-13.856 0-26.368-2.464-39.168-7.744a105.28 105.28 0 0 1-62.88-81.696c-2.496-18.208-0.512-35.296 5.952-54.432 3.264-8.704 6.592-16.544 10.112-24.512 1.6-3.744 3.296-7.424 4.928-11.104l2.944-6.624c1.792-4.16 3.648-8.224 5.504-12.256l3.872-8.64A8634.176 8634.176 0 0 1 420.8 286.944l1.088-2.496c5.664-10.784 11.36-22.144 16.8-33.024l0.8-1.664c5.824-10.56 12.416-22.464 20-31.808a70.144 70.144 0 0 1 52.256-25.28zM512 480c22.688 0 42.4 9.856 52.928 26.752 5.472 8.448 8.768 16.96 10.08 26.688 1.824 11.616 1.056 25.568-2.144 40.32-7.552 33.824-28.032 73.664-61.056 118.688-32.608-44.064-53.536-84.928-60.8-119.136a106.112 106.112 0 0 1-2.016-40.576c1.28-9.056 4.48-17.536 9.92-25.984l0.64-1.056c11.616-16.128 31.104-25.696 52.448-25.696z" p-id="6486" fill="white"></path></svg>